<svg width="24" height="24" viewBox="0 0 24 24" fill="none" xmlns="http://www.w3.org/2000/svg">
<path d="M7 22C6.45 22 5.979 21.804 5.587 21.412C5.195 21.02 4.99934 20.5493 5 20V10C5 9.45 5.196 8.979 5.588 8.587C5.98 8.195 6.45067 7.99934 7 8H17C17.55 8 18.021 8.196 18.413 8.588C18.805 8.98 19.0007 9.45067 19 10V20C19 20.55 18.804 21.021 18.412 21.413C18.02 21.805 17.5493 22.0007 17 22H7ZM11 20.5H13V19H11V20.5ZM11 18H13C13 17.6167 13.1293 17.2333 13.388 16.85C13.6467 16.4667 13.934 16.075 14.25 15.675C14.5667 15.2583 14.8543 14.8333 15.113 14.4C15.3717 13.9667 15.5007 13.5 15.5 13C15.5 12.0333 15.1583 11.2083 14.475 10.525C13.7917 9.84167 12.9667 9.5 12 9.5C11.0333 9.5 10.2083 9.84167 9.525 10.525C8.84167 11.2083 8.5 12.0333 8.5 13C8.5 13.5 8.62933 13.9667 8.888 14.4C9.14667 14.8333 9.434 15.2583 9.75 15.675C10.0667 16.075 10.3543 16.4667 10.613 16.85C10.8717 17.2333 11.0007 17.6167 11 18ZM6 6.5C6 6.08334 6.146 5.729 6.438 5.437C6.73 5.145 7.084 4.99934 7.5 5H16.5C16.9167 5 17.271 5.146 17.563 5.438C17.855 5.73 18.0007 6.084 18 6.5H6ZM7 3.5C7 3.08334 7.146 2.729 7.438 2.437C7.73 2.145 8.084 1.99934 8.5 2H15.5C15.9167 2 16.271 2.146 16.563 2.438C16.855 2.73 17.0007 3.084 17 3.5H7Z" fill="#ABAFB3"/>
</svg>
