<svg width="24" height="24" viewBox="0 0 24 24" fill="none" xmlns="http://www.w3.org/2000/svg">
<path d="M18.501 3.5L3.50098 18.501L5.49698 20.497L20.497 5.497L18.501 3.5ZM7.00198 5C6.73933 4.99974 6.47921 5.05121 6.23646 5.15148C5.99371 5.25174 5.77308 5.39884 5.58718 5.58437C5.40127 5.7699 5.25373 5.99023 5.15298 6.23279C5.05223 6.47534 5.00024 6.73536 4.99998 6.998C4.99971 7.26064 5.05119 7.52077 5.15145 7.76352C5.25172 8.00627 5.39882 8.2269 5.58435 8.4128C5.76988 8.5987 5.99021 8.74624 6.23276 8.84699C6.47531 8.94775 6.73533 8.99974 6.99798 9C7.52841 9.00053 8.03733 8.79033 8.41278 8.41563C8.78822 8.04093 8.99945 7.53243 8.99998 7.002C9.00051 6.47157 8.7903 5.96265 8.4156 5.5872C8.04091 5.21175 7.53241 5.00053 7.00198 5ZM17.002 15C16.4715 14.9995 15.9626 15.2097 15.5872 15.5844C15.2117 15.9591 15.0005 16.4676 15 16.998C14.9994 17.5284 15.2097 18.0374 15.5843 18.4128C15.959 18.7882 16.4675 18.9995 16.998 19C17.2606 19.0003 17.5207 18.9488 17.7635 18.8485C18.0062 18.7483 18.2269 18.6012 18.4128 18.4156C18.5987 18.2301 18.7462 18.0098 18.847 17.7672C18.9477 17.5247 18.9997 17.2646 19 17.002C19.0002 16.7394 18.9488 16.4792 18.8485 16.2365C18.7482 15.9937 18.6011 15.7731 18.4156 15.5872C18.2301 15.4013 18.0097 15.2538 17.7672 15.153C17.5246 15.0523 17.2646 15.0003 17.002 15Z" fill="#ABAFB3"/>
</svg>
