<svg width="24" height="24" viewBox="0 0 24 24" fill="none" xmlns="http://www.w3.org/2000/svg">
<path d="M21.4909 9.72185C21.4697 9.79775 21.4309 9.86729 21.378 9.925L21.3268 9.9697L17.0987 13.6597L16.6471 14.0538L16.7818 14.6378L18.0483 20.1315L18.0489 20.1341C18.0713 20.2299 18.0649 20.3301 18.0306 20.4222C17.9963 20.5143 17.9356 20.5943 17.8561 20.6521C17.7766 20.7099 17.6818 20.743 17.5836 20.7473C17.4858 20.7515 17.3888 20.7269 17.3048 20.6766C17.3045 20.6764 17.3042 20.6762 17.3039 20.676L12.5148 17.7712L11.9956 17.4563L11.4768 17.7717L6.69878 20.676C6.69833 20.6763 6.69788 20.6765 6.69743 20.6768C6.61354 20.727 6.51677 20.7515 6.41908 20.7473C6.32087 20.743 6.22609 20.7099 6.14659 20.6521C6.06709 20.5943 6.0064 20.5143 5.97211 20.4222C5.93782 20.3301 5.93144 20.2299 5.95378 20.1341L5.95441 20.1314L7.2191 14.6433L7.35356 14.0598L6.90266 13.6657L2.67359 9.97012L2.67361 9.97011L2.66868 9.96586C2.59412 9.90155 2.54021 9.81667 2.5137 9.72184C2.48719 9.62702 2.48927 9.52648 2.51968 9.43283C2.55008 9.33918 2.60745 9.2566 2.68461 9.19543C2.76176 9.13426 2.85526 9.09723 2.95337 9.08899L2.95592 9.08877L8.5303 8.60595L9.13252 8.55379L9.36624 7.99633L11.5422 2.80633L11.5428 2.80476C11.5805 2.71456 11.644 2.6375 11.7253 2.5833C11.8066 2.5291 11.9022 2.50018 11.9999 2.50018C12.0977 2.50018 12.1933 2.5291 12.2746 2.5833L12.8248 1.75756L12.2746 2.5833C12.3559 2.6375 12.4194 2.71455 12.4571 2.80476L12.4581 2.80732L14.6406 7.99732L14.8747 8.55384L15.4761 8.60595L21.0486 9.08877L21.0512 9.08898C21.1493 9.09723 21.2428 9.13426 21.32 9.19543C21.3971 9.25659 21.4545 9.33918 21.4849 9.43283L22.436 9.12404L21.4849 9.43284C21.5153 9.52648 21.5174 9.62701 21.4909 9.72184L21.5817 9.74723L21.4909 9.72185Z" stroke="#FDD663" stroke-width="2"/>
</svg>
